<svg xmlns="http://www.w3.org/2000/svg" viewBox="0 0 90.72 90.72">
  <title>add</title>
  <circle cx="45.36" cy="45.36" r="45.36" fill="#231f20"/>
  <path d="M73.1,49.47a2.42,2.42,0,0,0,2.43-2.42V43.67a2.43,2.43,0,0,0-2.43-2.43H51.9a2.42,2.42,0,0,1-2.43-2.42V17.62a2.42,2.42,0,0,0-2.42-2.43H43.67a2.43,2.43,0,0,0-2.43,2.43v21.2a2.42,2.42,0,0,1-2.42,2.42H17.62a2.43,2.43,0,0,0-2.43,2.43v3.38a2.42,2.42,0,0,0,2.43,2.42h21.2a2.42,2.42,0,0,1,2.42,2.43V73.1a2.43,2.43,0,0,0,2.43,2.43h3.38a2.42,2.42,0,0,0,2.42-2.43V51.9a2.43,2.43,0,0,1,2.43-2.43Z" fill="#fff" fill-rule="evenodd"/>
</svg>
