<?xml version="1.0" encoding="utf-8"?>
<!-- Generator: Adobe Illustrator 24.0.3, SVG Export Plug-In . SVG Version: 6.00 Build 0)  -->
<svg version="1.1" id="Layer_1" xmlns="http://www.w3.org/2000/svg" xmlns:xlink="http://www.w3.org/1999/xlink" x="0px" y="0px"
	 viewBox="0 0 88 88" style="enable-background:new 0 0 88 88;" xml:space="preserve">
<style type="text/css">
	.st0{fill-rule:evenodd;clip-rule:evenodd;}
	.st1{fill-rule:evenodd;clip-rule:evenodd;fill:#FFFFFF;}
</style>
<title>CustomIcon_Sizes</title>
<circle class="st0" cx="44" cy="44" r="44"/>
<path class="st1" d="M73.4,28.6c0-0.3-0.1-0.8-0.1-1.1c0-0.3-0.1-0.5-0.3-0.8c-0.3-0.5-0.7-0.9-1.2-1.2c-0.3-0.1-0.5-0.2-0.8-0.3
	c-0.3-0.1-0.2,0-0.5,0c-0.2,0-0.4,0-0.6,0c-0.2,0-0.4,0-0.6,0h-7.2h-0.5h-0.4h-0.4h-0.3c-0.4,0-0.9-0.1-1.3-0.2
	c-0.6-0.1-1.1-0.3-1.6-0.5c-0.5-0.3-1-0.6-1.4-1c-0.4-0.4-0.8-1-1-1.5l0,0l-0.1-0.4c-0.1-0.2-0.1-0.4-0.2-0.5
	c-0.2-0.4-0.5-0.8-0.8-1.1c-0.3-0.3-0.7-0.6-1.1-0.8c-0.4-0.2-0.9-0.4-1.3-0.4c-0.5-0.1-1-0.1-1.5-0.1H37.8c-0.5,0-1,0-1.5,0.1
	c-0.5,0.1-0.9,0.2-1.3,0.4c-1,0.5-1.8,1.4-2.2,2.5l-0.2,0.4l0,0c-0.2,0.5-0.5,1.1-0.9,1.5c-0.4,0.4-0.9,0.7-1.4,1
	c-0.5,0.3-1.1,0.4-1.6,0.5c-0.4,0.1-0.7,0.2-1.1,0.2L27,25.2c-0.1,0-0.4,0-0.6,0H18c-0.3,0-0.7,0-1,0c-0.3,0-0.6,0.1-0.8,0.3
	c-0.5,0.3-0.9,0.7-1.2,1.2c-0.1,0.3-0.2,0.5-0.3,0.8c0,0.3-0.1,0.6-0.1,0.9c0,0.5,0,0.4,0,0.2v1.1v28.1V59c0,0.2,0,0.6,0,0.8
	c0,0.4,0,0.7,0.1,1c0,0.3,0.1,0.6,0.3,0.9c0.1,0.3,0.3,0.5,0.5,0.8c0.2,0.2,0.4,0.4,0.7,0.6c0.3,0.1,0.5,0.2,0.8,0.3
	c0.3,0.1,0.6,0.1,0.9,0.1h52.3c0.3,0,0.6,0,0.9-0.1c0.3-0.1,0.6-0.2,0.8-0.3c0.2-0.2,0.5-0.4,0.6-0.6c0.2-0.2,0.4-0.5,0.5-0.8
	c0.1-0.3,0.2-0.6,0.3-0.9c0-0.3,0.1-0.7,0.1-1c0-0.2,0-0.6,0-0.8s0,0,0,0V28.6L73.4,28.6z M43.9,58.6c-8.1,0-14.6-6.6-14.5-14.6
	c0-8.1,6.6-14.6,14.6-14.5c8,0,14.5,6.5,14.5,14.6C58.5,52,52,58.6,43.9,58.6C43.9,58.6,43.9,58.6,43.9,58.6L43.9,58.6z M60.3,32.7
	c-0.9,0-1.7-0.8-1.7-1.7c0-0.9,0.8-1.7,1.7-1.7c0.9,0,1.7,0.8,1.7,1.7v0C62,31.9,61.2,32.7,60.3,32.7L60.3,32.7z M25.8,20.8
	c0-0.1,0-0.1,0-0.2s0-0.1,0-0.2c0-0.1,0-0.2,0-0.4c0-0.2-0.2-0.4-0.3-0.6c-0.1-0.1-0.2-0.1-0.3-0.2c-0.1,0-0.2-0.1-0.3-0.1
	c-0.1,0-0.3,0-0.4,0h-4c-0.1,0-0.3,0-0.4,0c-0.1,0-0.2,0.1-0.3,0.1c-0.1,0-0.2,0.1-0.3,0.2c-0.1,0.1-0.2,0.2-0.2,0.3
	c-0.1,0.1-0.1,0.2-0.1,0.3c0,0.1,0,0.2,0,0.4c0,0.1,0,0.1,0,0.2v1.9h6.8L25.8,20.8z M43.9,32.8c-6.2,0-11.2,5-11.2,11.2
	s5,11.2,11.2,11.2c6.2,0,11.2-5,11.2-11.2C55.2,37.8,50.1,32.8,43.9,32.8C43.9,32.7,43.9,32.7,43.9,32.8L43.9,32.8z"/>
</svg>
